<svg width="25" height="24" viewBox="0 0 25 24" fill="none" xmlns="http://www.w3.org/2000/svg">
<path d="M18.5 15.75V17.25H19.811C18.9793 18.4123 17.8818 19.359 16.6101 20.0113C15.3384 20.6636 13.9292 21.0026 12.5 21C7.53725 21 3.5 16.9627 3.5 12H2C2 17.79 6.71 22.5 12.5 22.5C15.7662 22.5 18.7805 20.9993 20.75 18.4913V19.5H22.25V15.75H18.5Z" fill="#3879E9"/>
<path d="M17.3787 8.72772L12.887 6.10272C12.7723 6.03566 12.6419 6.00025 12.5091 6.00012C12.3763 5.99999 12.2458 6.03514 12.131 6.10197L7.62275 8.72697C7.50938 8.79295 7.41529 8.88751 7.34989 9.00122C7.28448 9.11492 7.25004 9.24379 7.25 9.37497V14.625C7.25004 14.7561 7.28448 14.885 7.34989 14.9987C7.41529 15.1124 7.50938 15.207 7.62275 15.273L12.131 17.898C12.2425 17.9646 12.37 17.9999 12.5 18C12.6305 18 12.77 17.9662 12.887 17.8972L17.3787 15.2722C17.4917 15.2061 17.5854 15.1116 17.6506 14.998C17.7157 14.8845 17.75 14.7559 17.75 14.625V9.37497C17.75 9.24407 17.7157 9.11545 17.6506 9.0019C17.5854 8.88835 17.4917 8.79383 17.3787 8.72772ZM12.5082 7.61772L15.5135 9.37497L12.5082 11.1315L9.491 9.37497L12.5082 7.61772ZM8.75 10.68L11.75 12.4275V15.9412L8.75 14.1937V10.68ZM13.25 15.9487V12.4365L16.25 10.683V14.1952L13.25 15.9487Z" fill="#3879E9"/>
<path d="M12.5 1.50001C10.9107 1.49771 9.34176 1.85752 7.91228 2.55212C6.4828 3.24671 5.23035 4.25785 4.25 5.50876V4.50001H2.75V8.25001H6.5V6.75001H5.189C6.02073 5.5877 7.11816 4.64097 8.38988 3.98867C9.66159 3.33638 11.0708 2.99741 12.5 3.00001C17.4628 3.00001 21.5 7.03726 21.5 12H23C23 6.21001 18.29 1.50001 12.5 1.50001Z" fill="#3879E9"/>
</svg>
