<svg width="16" height="16" viewBox="0 0 16 16" fill="none" xmlns="http://www.w3.org/2000/svg">
<path d="M8 1.33333C9.5913 1.33333 11.1174 1.96547 12.2426 3.09069C13.3679 4.21591 14 5.74203 14 7.33333C14 9.38266 12.8827 11.06 11.7053 12.2633C11.1171 12.858 10.4753 13.3972 9.788 13.874L9.504 14.0673L9.37067 14.156L9.11933 14.316L8.89533 14.4527L8.618 14.614C8.42976 14.7214 8.21675 14.778 8 14.778C7.78325 14.778 7.57024 14.7214 7.382 14.614L7.10467 14.4527L6.758 14.2393L6.63 14.156L6.35667 13.974C5.61522 13.4723 4.9246 12.8994 4.29467 12.2633C3.11733 11.0593 2 9.38266 2 7.33333C2 5.74203 2.63214 4.21591 3.75736 3.09069C4.88258 1.96547 6.4087 1.33333 8 1.33333ZM8 5.33333C7.73736 5.33333 7.47728 5.38506 7.23463 5.48557C6.99198 5.58608 6.7715 5.7334 6.58579 5.91911C6.40007 6.10483 6.25275 6.32531 6.15224 6.56796C6.05173 6.81061 6 7.07068 6 7.33333C6 7.59597 6.05173 7.85604 6.15224 8.0987C6.25275 8.34135 6.40007 8.56183 6.58579 8.74754C6.7715 8.93326 6.99198 9.08058 7.23463 9.18109C7.47728 9.2816 7.73736 9.33333 8 9.33333C8.53043 9.33333 9.03914 9.12261 9.41421 8.74754C9.78929 8.37247 10 7.86376 10 7.33333C10 6.8029 9.78929 6.29419 9.41421 5.91911C9.03914 5.54404 8.53043 5.33333 8 5.33333Z" fill="#EA244E"/>
</svg>
