<svg width="19" height="24" viewBox="0 0 19 24" fill="none" xmlns="http://www.w3.org/2000/svg">
<path d="M2.32132 24C1.7071 24 1.19466 23.7947 0.78399 23.384C0.373323 22.9733 0.167545 22.4609 0.166656 21.8467V2.15333C0.166656 1.54 0.372434 1.028 0.78399 0.617333C1.19555 0.206667 1.70799 0.000888889 2.32132 0H16.68C17.2933 0 17.8058 0.205778 18.2173 0.617333C18.6289 1.02889 18.8342 1.54133 18.8333 2.15467V21.8467C18.8333 22.46 18.628 22.9724 18.2173 23.384C17.8067 23.7956 17.2938 24.0009 16.6787 24H2.32132ZM2.32132 22.6667H16.68C16.8844 22.6667 17.0724 22.5813 17.244 22.4107C17.4155 22.24 17.5009 22.0516 17.5 21.8453V2.15467C17.5 1.94933 17.4147 1.76089 17.244 1.58933C17.0733 1.41778 16.8849 1.33244 16.6787 1.33333H14.8333V8.552C14.8333 8.76711 14.7435 8.92711 14.564 9.032C14.3844 9.13689 14.2009 9.13156 14.0133 9.016L12.712 8.24533C12.5244 8.12978 12.3395 8.072 12.1573 8.072C11.9751 8.072 11.7902 8.12978 11.6027 8.24533L10.3027 9.016C10.1142 9.13156 9.93332 9.13689 9.75999 9.032C9.58666 8.92711 9.49999 8.76711 9.49999 8.552V1.33333H2.32132C2.11599 1.33333 1.92755 1.41867 1.75599 1.58933C1.58443 1.76 1.4991 1.948 1.49999 2.15333V21.8467C1.49999 22.0511 1.58532 22.2391 1.75599 22.4107C1.92666 22.5822 2.11466 22.6676 2.31999 22.6667M9.49999 8.57733V8.552C9.49999 8.76711 9.58666 8.92711 9.75999 9.032C9.93332 9.13689 10.1142 9.13156 10.3027 9.016L11.6027 8.24533C11.7902 8.12978 11.9751 8.072 12.1573 8.072C12.3395 8.072 12.5244 8.12978 12.712 8.24533L14.012 9.016C14.2004 9.13156 14.3844 9.13689 14.564 9.032C14.7435 8.92711 14.8333 8.76711 14.8333 8.552V8.57733C14.8333 8.77555 14.7435 8.92711 14.564 9.032C14.3844 9.13689 14.2004 9.14 14.012 9.04133L12.712 8.24533C12.5244 8.12978 12.3395 8.072 12.1573 8.072C11.9751 8.072 11.7902 8.12978 11.6027 8.24533L10.3027 9.04133C10.1142 9.14 9.93332 9.13689 9.75999 9.032C9.58666 8.92711 9.49999 8.77555 9.49999 8.57733Z" fill="#0D0D0D"/>
</svg>
